<svg width="16" height="17" viewBox="0 0 16 17" fill="none" xmlns="http://www.w3.org/2000/svg">
<path d="M14.665 11.91V13.91C14.6657 14.0957 14.6277 14.2794 14.5533 14.4496C14.479 14.6197 14.3699 14.7724 14.233 14.8979C14.0962 15.0234 13.9347 15.119 13.7588 15.1785C13.5829 15.2379 13.3966 15.26 13.2117 15.2433C11.1602 15.0204 9.18966 14.3194 7.45833 13.1967C5.84755 12.1731 4.48189 10.8074 3.45833 9.19666C2.33165 7.45746 1.63049 5.47732 1.41166 3.41665C1.395 3.2323 1.41691 3.0465 1.47599 2.87107C1.53508 2.69565 1.63004 2.53445 1.75484 2.39774C1.87964 2.26102 2.03153 2.15179 2.20086 2.077C2.37018 2.00221 2.55322 1.9635 2.73833 1.96332H4.73833C5.06187 1.96014 5.37552 2.07471 5.62084 2.28568C5.86615 2.49665 6.02638 2.78962 6.07166 3.10999C6.15608 3.75003 6.31263 4.37847 6.53833 4.98332C6.62802 5.22194 6.64744 5.48126 6.59427 5.73058C6.5411 5.97989 6.41757 6.20873 6.23833 6.38999L5.39166 7.23665C6.3407 8.90569 7.72263 10.2876 9.39166 11.2367L10.2383 10.39C10.4196 10.2107 10.6484 10.0872 10.8977 10.0341C11.1471 9.98088 11.4064 10.0003 11.645 10.09C12.2498 10.3157 12.8783 10.4722 13.5183 10.5567C13.8422 10.6023 14.1379 10.7655 14.3494 11.015C14.5608 11.2645 14.6731 11.583 14.665 11.91Z" stroke="#640CBC" stroke-width="1.33333" stroke-linecap="round" stroke-linejoin="round"/>
</svg>
